<?xml version="1.0" standalone="no"?>
<!DOCTYPE svg PUBLIC "-//W3C//DTD SVG 20010904//EN"
 "http://www.w3.org/TR/2001/REC-SVG-20010904/DTD/svg10.dtd">
<svg version="1.0" xmlns="http://www.w3.org/2000/svg"
 width="640.000000pt" height="640.000000pt" viewBox="0 0 640.000000 640.000000"
 preserveAspectRatio="xMidYMid meet">
<metadata>
Created by potrace 1.14, written by Peter Selinger 2001-2017
</metadata>
<g transform="translate(0.000000,640.000000) scale(0.100000,-0.100000)"
fill="#000000" stroke="none">
<path d="M0 3200 l0 -3200 3200 0 3200 0 0 3200 0 3200 -3200 0 -3200 0 0
-3200z m3290 1726 l0 -123 52 -7 c72 -10 185 -42 268 -76 323 -133 578 -418
675 -755 67 -233 58 -511 -25 -733 -75 -201 -226 -402 -400 -533 -133 -100
-339 -189 -492 -212 l-78 -11 0 -148 0 -149 -137 3 -138 3 -3 146 -3 146 -67
11 c-149 25 -352 113 -475 206 -308 232 -477 567 -477 946 0 192 34 341 120
516 110 226 304 420 535 537 69 34 221 84 299 98 l66 11 0 124 0 124 140 0
140 0 0 -124z m-845 16 c-6 -5 -44 -36 -85 -69 -393 -316 -642 -688 -706
-1053 -23 -134 -15 -349 19 -481 90 -346 338 -711 671 -984 l84 -70 -675 -3
c-484 -1 -680 1 -689 9 -8 6 -52 68 -98 138 -442 660 -513 1356 -207 2041 58
131 147 282 234 399 l60 81 701 0 c385 0 696 -4 691 -8z m2894 -74 c302 -415
451 -912 413 -1379 -24 -289 -88 -509 -228 -787 -65 -129 -225 -383 -258 -411
-9 -8 -205 -10 -689 -9 l-675 3 84 70 c103 84 258 242 342 349 163 205 272
416 330 640 24 92 27 118 26 286 0 167 -3 194 -27 282 -74 277 -222 515 -476
768 -106 106 -164 157 -291 257 -12 10 133 12 687 13 l702 0 60 -82z m-4594
-3250 c7 -7 6 -12 -2 -15 -10 -3 -13 -38 -13 -124 l0 -119 100 0 100 0 26 40
c15 22 32 40 39 40 18 0 105 -73 105 -87 0 -10 -43 -13 -180 -13 -99 0 -180
-2 -180 -5 0 -2 9 -28 21 -57 61 -155 177 -277 302 -317 20 -7 37 -16 37 -21
0 -5 -15 -18 -34 -29 -18 -12 -39 -35 -46 -51 -7 -17 -18 -30 -25 -30 -21 0
-137 131 -178 201 -41 70 -87 205 -88 260 0 25 -7 12 -25 -55 -13 -49 -36
-112 -51 -140 -40 -75 -154 -184 -241 -229 -103 -55 -118 -44 -33 25 77 63
140 138 176 207 29 59 65 175 65 212 l0 29 -150 0 c-113 0 -150 3 -150 13 0 9
37 12 152 12 l153 0 3 130 c1 72 4 135 6 141 5 14 94 -1 111 -18z m818 16 c57
-29 60 -34 32 -60 -46 -42 -34 -54 53 -54 l77 0 36 41 36 42 41 -38 c23 -20
42 -41 42 -46 0 -5 -71 -9 -158 -9 l-159 0 -41 -96 c-23 -53 -40 -100 -37
-103 3 -6 41 -6 88 -2 4 1 7 38 7 82 l0 82 28 -6 c57 -11 86 -27 74 -39 -13
-13 -17 -118 -4 -119 4 0 17 -2 29 -5 16 -3 27 5 43 31 12 19 29 35 39 35 9 0
35 -18 56 -40 l39 -40 -107 0 -107 0 0 -75 0 -75 59 0 c56 0 60 2 82 35 13 19
28 35 32 35 15 0 87 -63 87 -77 0 -10 -28 -13 -130 -13 l-130 0 0 -84 c0 -83
0 -85 -27 -94 -41 -15 161 -15 226 0 28 6 54 9 57 5 3 -3 -3 -18 -15 -33 -11
-15 -21 -35 -21 -46 0 -33 -44 -40 -217 -34 -183 7 -227 18 -315 81 -63 45
-86 41 -135 -23 -18 -23 -36 -43 -40 -44 -11 -1 -41 53 -42 75 -1 11 17 28 44
45 l45 27 0 132 0 133 -49 0 c-28 0 -53 5 -56 10 -4 6 12 10 41 10 35 0 54 6
70 21 25 23 45 20 83 -12 21 -17 22 -23 12 -42 -8 -14 -11 -63 -9 -142 l3
-120 45 -25 c38 -21 60 -25 145 -27 55 -1 92 0 83 3 -15 5 -18 18 -18 95 l0
89 -115 0 c-70 0 -115 4 -115 10 0 6 45 10 115 10 l115 0 0 75 0 75 -42 0
c-31 0 -49 -6 -68 -25 l-26 -25 -37 26 c-41 28 -46 48 -18 78 18 19 71 138 71
158 0 5 -20 6 -44 3 -28 -5 -46 -3 -50 4 -5 7 10 11 48 11 l54 0 17 53 c9 28
18 58 20 65 6 16 20 15 58 -4z m782 2 c19 -8 40 -25 46 -38 14 -32 -3 -75 -36
-90 -21 -9 -28 -8 -45 7 -11 10 -20 28 -20 40 0 11 -11 36 -25 55 -14 19 -25
35 -25 37 0 9 76 1 105 -11z m633 -13 l35 -14 -34 -32 -34 -32 49 -3 c45 -3
52 0 73 27 14 17 30 31 36 31 13 0 77 -60 77 -72 0 -4 -37 -8 -82 -8 l-81 0
21 -23 c38 -41 24 -97 -25 -97 -18 0 -23 7 -28 38 -12 71 -15 82 -30 82 -7 0
-34 -26 -58 -57 -54 -70 -95 -109 -104 -100 -3 4 10 42 29 84 20 43 44 103 53
133 26 81 19 78 103 43z m314 10 c24 -9 45 -18 47 -19 2 -2 -11 -18 -30 -36
l-33 -33 69 -3 c51 -2 71 1 76 11 5 8 17 24 27 37 l19 23 41 -38 c23 -20 42
-41 42 -46 0 -5 -45 -9 -100 -9 l-99 0 24 -25 c28 -27 31 -44 13 -67 -35 -43
-68 -23 -77 45 -8 58 -36 57 -86 -3 -68 -81 -94 -87 -56 -12 10 20 28 69 41
107 24 74 29 85 35 85 3 0 24 -7 47 -17z m1571 1 c18 -6 24 -34 7 -34 -6 0
-10 -35 -10 -85 l0 -85 77 0 c64 0 80 3 99 21 26 24 54 21 94 -11 22 -17 24
-21 12 -41 -10 -15 -13 -55 -11 -141 3 -109 1 -122 -16 -134 -10 -8 -31 -14
-46 -14 -23 0 -28 5 -31 28 -3 27 -3 27 -90 30 l-88 3 0 -170 c0 -189 -1 -191
-69 -191 l-31 0 0 180 0 180 -82 0 -83 0 -15 -33 c-12 -27 -21 -33 -52 -35
l-38 -3 0 185 c0 122 4 186 10 186 6 0 28 -9 50 -20 30 -15 59 -20 125 -20
l85 0 0 111 0 111 43 -7 c23 -3 50 -9 60 -11z m770 -16 c41 -20 61 -58 51 -92
-9 -30 -34 -56 -55 -56 -22 0 -49 37 -49 65 0 11 -9 38 -20 60 -11 22 -20 43
-20 47 0 11 47 -1 93 -24z m247 -3 c53 -27 61 -40 32 -49 -9 -3 -46 -33 -82
-66 l-65 -60 62 0 c52 0 64 3 73 20 14 27 26 25 83 -10 58 -37 60 -56 7 -65
-22 -4 -59 -20 -82 -35 -23 -16 -44 -27 -47 -25 -2 2 4 22 13 45 9 22 16 43
16 45 0 3 -119 5 -265 5 l-265 0 0 -35 c0 -64 -65 -99 -104 -56 -21 23 -18 29
42 97 40 45 45 47 57 31 11 -16 30 -17 196 -15 l184 3 28 75 c52 140 43 133
117 95z m-433 -25 c23 -15 43 -50 43 -76 0 -8 -11 -26 -25 -40 -35 -34 -56
-20 -84 55 -12 33 -26 63 -32 66 -5 4 -7 10 -4 14 6 11 74 -2 102 -19z m-1363
0 c8 -8 6 -15 -8 -26 -19 -13 -19 -18 -7 -92 40 -238 137 -414 265 -483 25
-13 46 -27 46 -31 0 -4 -15 -14 -33 -22 -19 -7 -46 -29 -60 -47 -33 -43 -45
-37 -109 56 -87 128 -146 334 -173 604 l-6 64 37 -6 c20 -4 42 -11 48 -17z
m-2798 -21 c41 -20 59 -62 44 -99 -23 -57 -84 -51 -95 8 -7 40 -34 92 -47 92
-4 0 -8 5 -8 11 0 15 66 7 106 -12z m1410 -41 c75 -54 66 -58 -130 -58 -196 0
-186 4 -186 -81 l0 -49 79 0 c73 0 80 2 95 25 l17 26 40 -23 c52 -29 66 -45
51 -60 -8 -8 -12 -59 -12 -151 0 -82 -5 -147 -11 -160 -31 -59 -99 -76 -121
-30 -7 15 -29 38 -48 51 -50 34 -49 43 6 35 68 -9 74 3 74 149 l0 118 -85 0
-85 0 0 -244 0 -244 -29 -12 c-16 -6 -38 -10 -48 -8 -17 3 -18 17 -14 256 l4
252 -82 0 -81 0 0 -168 c0 -192 -6 -212 -66 -212 l-34 0 0 220 c0 121 3 220 6
220 3 0 27 -9 53 -20 37 -16 64 -20 122 -18 l74 3 3 63 3 62 -171 0 c-129 0
-170 3 -170 13 0 9 69 11 317 9 l318 -2 24 35 c13 19 28 35 33 35 5 0 30 -14
54 -32z m1193 -59 c55 -16 72 -36 47 -55 -13 -9 -29 -51 -47 -124 -33 -130
-79 -230 -148 -322 -50 -66 -116 -126 -127 -115 -3 3 6 24 21 46 40 65 81 150
109 228 30 83 66 242 66 295 0 47 9 70 25 64 7 -2 31 -10 54 -17z m-460 -63
c40 -21 57 -44 43 -58 -7 -7 -12 -40 -12 -74 0 -60 -1 -62 -30 -73 -37 -13
-60 -5 -60 20 0 18 -7 19 -77 17 l-78 -3 -3 -52 -3 -53 100 0 c92 0 101 2 115
22 16 22 16 22 51 4 52 -28 58 -39 40 -72 -8 -16 -15 -40 -15 -54 -1 -43 -37
-108 -72 -130 -47 -29 -71 -26 -85 10 -6 16 -25 38 -42 47 -41 24 -39 37 5 30
50 -8 83 7 99 48 31 72 28 75 -90 75 l-105 0 0 -135 c0 -125 -1 -135 -20 -145
-12 -6 -33 -10 -48 -8 l-27 3 -3 103 -3 103 -63 -45 c-59 -42 -182 -106 -233
-121 -42 -12 -24 11 45 55 37 24 99 76 137 115 l70 70 -54 3 c-39 2 -58 -1
-71 -13 -21 -19 -49 -14 -74 14 -16 18 -16 22 4 80 11 33 20 69 20 80 0 32 16
33 59 6 33 -20 53 -25 106 -25 l65 0 0 55 0 55 -114 0 c-66 0 -117 4 -121 10
-4 7 77 10 237 10 232 0 244 1 256 20 15 24 15 24 51 6z m2393 -77 c27 -18 47
-37 45 -43 -2 -6 -19 -13 -38 -17 -72 -11 -139 -67 -139 -116 0 -7 6 -13 13
-14 6 0 49 -1 95 -2 83 -2 84 -2 108 31 14 17 31 32 38 32 16 0 96 -59 96 -71
0 -5 -76 -9 -175 -9 l-175 0 0 -119 c0 -110 -2 -122 -22 -146 -14 -15 -38 -28
-60 -32 -33 -5 -39 -3 -47 20 -10 26 -69 77 -89 77 -7 0 -12 5 -12 10 0 6 28
10 65 10 76 0 78 4 73 110 l-3 65 -172 -1 c-129 -1 -173 2 -177 11 -3 10 33
13 162 13 92 0 173 1 180 1 9 1 11 14 6 52 l-7 51 51 -7 c49 -6 51 -6 66 24 9
16 16 35 16 40 0 7 -51 10 -150 9 -105 -1 -154 2 -162 10 -9 9 26 12 159 12
143 0 172 2 177 15 8 22 23 19 78 -16z"/>
<path d="M2925 4590 c-73 -15 -210 -70 -286 -114 -249 -147 -409 -373 -471
-664 -34 -165 -17 -368 46 -540 112 -306 405 -553 729 -616 l67 -14 0 979 0
979 -22 -1 c-13 -1 -41 -5 -63 -9z"/>
<path d="M3290 3625 c0 -808 2 -975 13 -975 37 0 177 44 251 78 271 127 466
361 541 646 111 429 -70 868 -454 1100 -77 47 -234 107 -313 120 l-38 7 0
-976z"/>
<path d="M4590 1300 l0 -110 85 0 85 0 0 110 0 110 -85 0 -85 0 0 -110z"/>
<path d="M4860 1300 l0 -110 90 0 91 0 -3 108 -3 107 -87 3 -88 3 0 -111z"/>
<path d="M3222 1348 c-7 -7 -12 -31 -12 -55 l0 -43 80 0 80 0 0 55 0 55 -68 0
c-40 0 -73 -5 -80 -12z"/>
<path d="M2971 1221 c-5 -9 -12 -33 -16 -54 l-7 -37 86 0 86 0 0 55 0 55 -70
-1 c-55 -1 -72 -5 -79 -18z"/>
</g>
</svg>
